<?xml version="1.0" encoding="utf-8"?>
<!-- Generator: Adobe Illustrator 26.0.2, SVG Export Plug-In . SVG Version: 6.00 Build 0)  -->
<svg version="1.1" id="Camada_1" xmlns="http://www.w3.org/2000/svg" xmlns:xlink="http://www.w3.org/1999/xlink" x="0px" y="0px"
	 width="16px" height="16px" viewBox="0 0 16 16" style="enable-background:new 0 0 16 16;" xml:space="preserve">
<style type="text/css">
	.st0{fill-rule:evenodd;clip-rule:evenodd;fill:#E0234E;}
</style>
<path class="st0" d="M9.3,2C9.2,2,9.1,2,9.1,2c0.2,0.1,0.3,0.3,0.3,0.4c0,0,0,0,0,0.1c0,0,0,0,0,0.1c0,0.3-0.1,0.3-0.1,0.5
	c-0.1,0.2-0.1,0.4,0,0.6c0,0,0,0,0,0.1C9.2,3,9.9,2.8,10,2.6c0-0.2-0.2-0.4-0.3-0.5C9.6,2,9.4,2,9.3,2L9.3,2z M10.3,2.2
	C10.3,2.3,10.3,2.2,10.3,2.2c0,0.1,0,0.2,0,0.2c0,0,0,0.1,0,0.1c0,0,0,0.1,0,0.1c0,0,0,0,0,0.1c0,0,0,0,0,0c0,0,0,0,0,0
	c0,0,0,0,0,0.1c0,0,0,0-0.1,0.1v0c0,0,0,0-0.1,0.1C10,2.9,9.9,2.9,9.8,3c0,0,0,0-0.1,0c0,0,0,0-0.1,0.1c0,0,0,0-0.1,0.1
	c0,0,0,0,0,0.1c0,0,0,0,0,0.1c0,0,0,0,0,0.1c0,0,0,0,0,0.1c0,0,0,0.1,0,0.1c0,0,0,0,0,0c0,0,0,0,0,0c0,0,0,0.1,0,0.1c0,0,0,0,0,0.1
	c0,0,0,0.1,0,0.1c0,0,0,0.1,0,0.1c0,0,0,0.1,0,0.1c0,0,0,0,0,0L8.8,3.7c-0.1,0-0.2-0.1-0.4-0.1c-0.1,0-0.1,0-0.2,0
	C8,3.5,7.8,3.5,7.6,3.5c0,0,0,0,0,0c-0.2,0-0.4,0-0.6,0c-0.1,0-0.3,0-0.4,0c-0.2,0-0.4,0-0.6,0.1c0,0-0.1,0-0.1,0
	c-0.1,0-0.2,0-0.3,0.1c0,0-0.1,0-0.1,0c0,0-0.1,0-0.1,0.1c0,0-0.1,0-0.1,0c0,0,0,0,0,0c0,0-0.1,0-0.1,0c0,0,0,0,0,0
	c0,0-0.1,0-0.1,0.1c0,0,0,0-0.1,0c0,0,0,0,0,0c0,0-0.1,0-0.1,0c0,0-0.1,0-0.1,0c0,0,0,0-0.1,0c0,0,0,0,0,0c0,0,0,0-0.1,0
	c0,0,0,0,0,0c0,0,0,0,0,0c0,0,0,0,0,0c0,0,0,0,0,0c0,0,0,0,0,0c0,0,0,0-0.1,0.1c0,0,0,0,0,0c0,0,0,0-0.1,0.1c0,0,0,0,0,0
	c0,0,0,0,0,0.1c0,0,0,0,0,0c0,0,0,0-0.1,0.1c0,0,0,0,0,0c0,0,0,0.1-0.1,0.1c0,0,0,0,0,0C4,4.6,4,4.7,3.9,4.7
	C3.9,4.8,3.8,4.8,3.7,4.9C3.7,4.9,3.6,5,3.5,5C3.5,5,3.4,5.1,3.3,5.1c-0.1,0-0.1,0.1-0.2,0.1C3,5.2,2.9,5.3,2.7,5.3c0,0-0.1,0-0.1,0
	c0,0-0.1,0-0.1,0c0,0-0.1,0-0.1,0c0,0-0.1,0-0.1,0c0,0,0,0-0.1,0c0,0,0,0-0.1,0.1c0,0,0,0-0.1,0.1c0,0,0,0-0.1,0.1c0,0,0,0,0,0.1
	c0,0,0,0,0,0.1c0,0,0,0.1,0,0.1c0,0,0,0.1,0,0.1C2,5.9,2,6,2,6c0,0,0,0,0,0c0,0,0,0.1,0,0.1c0,0,0,0,0,0.1c0,0,0,0,0,0
	c0,0,0,0,0,0.1c0,0,0,0,0,0.1v0c0,0,0,0,0,0.1c0,0,0,0,0,0.1c0,0,0,0,0.1,0.1c0,0,0,0,0.1,0.1c0.1,0.1,0.1,0.1,0.2,0.1
	c0,0,0,0,0.1,0c0,0,0,0,0,0c0,0,0,0,0,0c0,0,0,0.1,0,0.1c0,0,0,0.1,0,0.1c0,0,0,0,0,0.1c0,0,0,0,0,0c0,0,0,0,0,0.1c0,0,0,0,0,0.1
	c0,0,0,0,0.1,0.1c0,0,0,0,0.1,0.1c0,0,0,0,0,0c0,0,0,0,0.1,0c0,0,0,0,0.1,0c0,0,0,0,0.1,0c0,0,0,0,0.1,0c0,0,0,0,0,0c0,0,0,0,0,0
	c0,0.2,0,0.3,0,0.4c0,0.1,0.2-0.1,0.3-0.4c0,0.2,0,0.5,0,0.6c0,0.1,0.2-0.2,0.4-0.4c2.3-0.5,4.4,1,4.6,3.3c0-0.3-0.5-0.5-0.7-0.5
	c-0.1,0.2-0.3,0.5-0.5,0.7c0-0.2,0-0.4,0-0.6C7.1,10.7,7,11,6.8,11.2c-0.3,0-0.6-0.1-0.8-0.3c0,0,0,0,0,0c0,0,0,0,0-0.1
	c0,0,0,0,0-0.1c0,0,0,0,0-0.1c0,0,0,0,0,0c0,0,0,0,0-0.1c0,0,0,0,0-0.1c0,0,0,0,0-0.1C6,10.2,6,10.1,5.9,10c0,0,0,0-0.1,0
	c0,0,0,0,0,0c0,0,0,0,0,0c0,0,0,0-0.1,0c0,0,0,0-0.1,0c0,0,0,0-0.1,0c0,0,0,0,0,0c0,0,0,0-0.1,0c0,0,0,0-0.1,0c0,0,0,0-0.1,0
	c0,0,0,0-0.1,0c0,0,0,0-0.1,0c-0.7,0.5-0.3,1.6,0.2,2c-0.2,0-0.4,0.1-0.4,0.1c0,0,0,0,0,0c0.1,0.1,0.3,0.2,0.4,0.2
	c0.2,0.1,0.4,0.1,0.5,0.2v0c0.3,0.1,0.5,0.1,0.8,0.1c1.4-0.1,2.6-1.2,2.8-2.6c0,0,0,0.1,0,0.1c0,0.1,0,0.1,0,0.2v0c0,0,0,0.1,0,0.1
	v0c0,0,0,0.1,0,0.1c0,0,0,0.1,0,0.1v0.1c0,0,0,0,0,0.1c0,0,0,0,0,0.1v0c0,0,0,0,0,0.1c0,0,0,0,0,0c0,0,0,0,0,0.1c0,0,0,0,0,0
	c0,0,0,0,0,0.1c0,0,0,0,0,0c0,0,0,0.1,0,0.1v0v0c0,0,0,0.1,0,0.1v0c0,0,0,0.1,0,0.1c0,0,0,0,0,0c0,0,0,0.1,0,0.1v0c0,0,0,0.1,0,0.1
	c0,0,0,0,0,0c0,0,0,0.1,0,0.1c0,0,0,0.1,0,0.1c0,0,0,0.1,0,0.1c0,0,0,0.1,0,0.1h0c0,0,0,0.1,0,0.1c0,0,0,0,0,0c0,0,0,0,0,0
	c-0.2,0.4-0.5,0.8-0.9,1.1c0,0-0.1,0-0.1,0.1c0,0,0,0,0,0c0,0,0,0-0.1,0l0,0h0c0,0,0.1,0,0.1,0h0c0.1,0,0.2,0,0.3,0c0,0,0,0,0.1,0
	c0,0,0,0,0,0c0,0,0,0,0.1,0c0,0,0,0,0.1,0c0.3-0.1,0.6-0.2,0.9-0.3c-0.5,0.7-1.2,1.3-2,1.6c0.4,0,0.7-0.1,1.1-0.2
	c1.3-0.4,2.4-1.3,3-2.4c-0.1,0.7-0.4,1.5-0.9,2.1c0.3-0.2,0.6-0.4,0.9-0.7c0.7-0.8,1.2-1.7,1.4-2.7c0.1,0.5,0.1,1,0.1,1.6
	c2.3-3.2,0.2-6.6-0.7-7.5c0,0,0,0,0,0c0,0,0,0,0,0c0,0,0,0,0,0c0,0,0,0.1,0,0.1c0,0.1,0,0.1,0,0.2c0,0.1,0,0.1-0.1,0.2
	c0,0.1,0,0.1-0.1,0.2c0,0.1-0.1,0.1-0.1,0.2c0,0.1-0.1,0.1-0.1,0.2c0,0.1-0.1,0.1-0.1,0.2c0,0.1-0.1,0.1-0.2,0.2C12,6,12,6,11.9,6
	c0,0,0,0-0.1,0.1c-0.1,0-0.1,0.1-0.2,0.1c-0.1,0-0.1,0.1-0.2,0.1c-0.1,0-0.1,0.1-0.2,0.1c-0.1,0-0.1,0-0.2,0.1c-0.1,0-0.1,0-0.2,0
	c-0.1,0-0.1,0-0.2,0c-0.1,0-0.1,0-0.2,0c-0.1,0-0.1,0-0.2,0c-0.1,0-0.1,0-0.2,0c-0.1,0-0.1,0-0.2-0.1h0c0.1,0,0.1,0,0.2,0
	c0.1,0,0.1,0,0.2,0c0.1,0,0.1,0,0.2-0.1c0.1,0,0.1-0.1,0.2-0.1c0.1,0,0.1-0.1,0.2-0.1C10.9,6.1,11,6,11,6c0.1,0,0.1-0.1,0.2-0.1
	c0.1,0,0.1-0.1,0.2-0.2c0-0.1,0.1-0.1,0.1-0.2c0,0,0,0,0,0c0-0.1,0.1-0.1,0.1-0.2c0-0.1,0.1-0.1,0.1-0.2c0-0.1,0.1-0.1,0.1-0.2
	c0-0.1,0-0.1,0.1-0.2c0-0.1,0-0.1,0-0.2c0-0.1,0-0.1,0-0.2c0-0.1,0-0.1,0-0.2c0-0.1,0-0.1,0-0.2c0-0.1,0-0.1,0-0.2
	c0-0.1,0-0.1-0.1-0.2c0-0.1-0.1-0.1-0.1-0.2c0-0.1-0.1-0.1-0.1-0.2c0-0.1-0.1-0.1-0.1-0.2c0-0.1-0.1-0.1-0.1-0.2
	c0,0-0.1-0.1-0.1-0.1c-0.1-0.1-0.3-0.2-0.4-0.3c0,0,0,0-0.1,0C10.5,2.3,10.4,2.2,10.3,2.2L10.3,2.2z"/>
</svg>
