<?xml version="1.0" encoding="utf-8"?>
<!-- Generator: Adobe Illustrator 26.0.2, SVG Export Plug-In . SVG Version: 6.00 Build 0)  -->
<svg version="1.1" id="Camada_2" xmlns="http://www.w3.org/2000/svg" xmlns:xlink="http://www.w3.org/1999/xlink" x="0px" y="0px"
	 width="16px" height="16px" viewBox="0 0 16 16" style="enable-background:new 0 0 16 16;" xml:space="preserve">
<style type="text/css">
	.st0{fill:#8C5CF2;}
</style>
<path class="st0" d="M9.2,0.5C9-0.1,8.2-0.2,7.8,0.4l-6,9.8c-0.2,0.3-0.2,0.6,0,0.8l2.9,4.6C5,15.9,5.3,16.1,5.7,16l8.5-2.6
	c0.5-0.1,0.7-0.7,0.5-1.1L9.2,0.5z M12.7,12.3l-5.9,1.8c-0.2,0.1-0.4-0.1-0.4-0.3L8.5,3.2C8.6,2.9,9,2.9,9.1,3.2l3.8,8.7
	C12.9,12.1,12.8,12.3,12.7,12.3z"/>
</svg>
