<?xml version="1.0" encoding="utf-8"?>
<!-- Generator: Adobe Illustrator 26.0.2, SVG Export Plug-In . SVG Version: 6.00 Build 0)  -->
<svg version="1.1" id="Camada_1" xmlns="http://www.w3.org/2000/svg" xmlns:xlink="http://www.w3.org/1999/xlink" x="0px" y="0px"
	 width="16px" height="16px" viewBox="0 0 16 16" style="enable-background:new 0 0 16 16;" xml:space="preserve">
<style type="text/css">
	.st0{clip-path:url(#SVGID_00000000938340569138310920000011312872613256780211_);}
	.st1{fill:#A32422;}
	.st2{fill:#DC382C;}
	.st3{fill:#FFFFFF;}
	.st4{fill:#741113;}
	.st5{fill:#AC2724;}
</style>
<g id="Layer_2">
	<g id="Layer_1-2">
		<g>
			<defs>
				<rect id="SVGID_1_" x="0.7" y="2" width="14.5" height="12.4"/>
			</defs>
			<clipPath id="SVGID_00000152944629335143072490000003645811179351492792_">
				<use xlink:href="#SVGID_1_"  style="overflow:visible;"/>
			</clipPath>
			<g style="clip-path:url(#SVGID_00000152944629335143072490000003645811179351492792_);">
				<path class="st1" d="M14.6,11.6C13.8,12,9.8,13.6,9,14.1c-0.9,0.5-1.3,0.4-2,0.1S2,12.1,1.3,11.8c-0.4-0.2-0.6-0.3-0.6-0.5V9.8
					c0,0,5.5-1.2,6.4-1.5s1.2-0.3,2-0.1s5.3,1.1,6.1,1.4v1.4C15.2,11.2,15,11.4,14.6,11.6L14.6,11.6z"/>
				<path class="st2" d="M14.6,10.1c-0.8,0.4-4.8,2-5.6,2.5c-0.9,0.4-1.3,0.4-2,0.1s-4.9-2-5.7-2.4c-0.8-0.4-0.8-0.6,0-0.9
					s5-2,5.9-2.3c0.9-0.3,1.2-0.3,2-0.1s4.7,1.9,5.5,2.1C15.3,9.5,15.4,9.7,14.6,10.1L14.6,10.1z"/>
				<path class="st1" d="M14.6,9.2c-0.8,0.4-4.8,2-5.6,2.5c-0.9,0.4-1.3,0.4-2,0.1c-0.7-0.3-4.9-2-5.7-2.4C0.9,9.2,0.7,9.1,0.7,8.9
					V7.4c0,0,5.5-1.2,6.4-1.5c0.9-0.3,1.2-0.3,2-0.1s5.3,1.1,6.1,1.4v1.4C15.2,8.8,15,9,14.6,9.2z"/>
				<path class="st2" d="M14.6,7.7C13.8,8.1,9.8,9.8,9,10.2c-0.9,0.4-1.3,0.4-2,0.1S2,8.3,1.3,7.9C0.5,7.6,0.5,7.3,1.2,7
					c0.8-0.3,5-2,5.9-2.3c0.9-0.3,1.2-0.3,2-0.1c0.8,0.3,4.7,1.9,5.5,2.1C15.3,7.1,15.4,7.3,14.6,7.7L14.6,7.7z"/>
				<path class="st1" d="M14.6,6.7C13.8,7.1,9.8,8.8,9,9.2C8.1,9.6,7.6,9.6,7,9.3C6.3,9,2,7.3,1.3,6.9C0.9,6.7,0.7,6.6,0.7,6.4V5
					c0,0,5.5-1.2,6.4-1.5s1.2-0.3,2-0.1s5.3,1.1,6.1,1.4v1.4C15.2,6.4,15,6.5,14.6,6.7z"/>
				<path class="st2" d="M14.6,5.2C13.8,5.6,9.8,7.3,9,7.7C8.1,8.2,7.6,8.2,7,7.9S2,5.8,1.3,5.4s-0.8-0.6,0-0.9s5-2,5.9-2.3
					s1.2-0.3,2-0.1s4.7,1.9,5.5,2.1C15.3,4.6,15.4,4.8,14.6,5.2L14.6,5.2z"/>
			</g>
		</g>
		<polygon class="st3" points="8.1,3.2 9.1,2.9 8.8,3.5 9.8,3.8 8.6,4 8.3,4.6 7.8,3.9 6.4,3.8 7.5,3.4 7.1,2.8 8.1,3.2 8.1,3.2 		
			"/>
		<polygon class="st3" points="8.2,7.1 5.9,6.1 9.2,5.6 8.2,7.1 8.2,7.1 		"/>
		<path class="st3" d="M5,4.2c1,0,1.8,0.3,1.8,0.7c0,0.4-0.8,0.7-1.8,0.7S3.2,5.3,3.2,4.9S4,4.2,5,4.2z"/>
		<polygon class="st4" points="11.3,4 13.3,4.8 11.3,5.6 11.3,4 11.3,4 		"/>
		<polygon class="st5" points="11.3,4 11.3,5.6 11.1,5.7 9.1,4.9 11.3,4 11.3,4 		"/>
	</g>
</g>
</svg>
